<mxfile host="65bd71144e">
    <diagram id="ewzuR5eaW9IHMEVUxl3F" name="Page-1">
        <mxGraphModel dx="1044" dy="599" grid="1" gridSize="10" guides="1" tooltips="1" connect="1" arrows="1" fold="1" page="1" pageScale="1" pageWidth="850" pageHeight="1100" math="0" shadow="0">
            <root>
                <mxCell id="0"/>
                <mxCell id="1" parent="0"/>
                <mxCell id="2" value="Courses" style="whiteSpace=wrap;html=1;align=center;" vertex="1" parent="1">
                    <mxGeometry x="350" y="280" width="100" height="40" as="geometry"/>
                </mxCell>
                <mxCell id="3" value="CourseID" style="ellipse;whiteSpace=wrap;html=1;align=center;fontStyle=4;" vertex="1" parent="1">
                    <mxGeometry x="200" y="210" width="100" height="40" as="geometry"/>
                </mxCell>
                <mxCell id="4" value="" style="endArrow=none;html=1;rounded=0;" edge="1" parent="1" source="3" target="2">
                    <mxGeometry relative="1" as="geometry">
                        <mxPoint x="200" y="299.5" as="sourcePoint"/>
                        <mxPoint x="360" y="299.5" as="targetPoint"/>
                    </mxGeometry>
                </mxCell>
                <mxCell id="7" value="" style="edgeStyle=none;html=1;endArrow=none;endFill=0;" edge="1" parent="1" source="5" target="2">
                    <mxGeometry relative="1" as="geometry"/>
                </mxCell>
                <mxCell id="5" value="CourseCode" style="ellipse;whiteSpace=wrap;html=1;align=center;" vertex="1" parent="1">
                    <mxGeometry x="220" y="150" width="100" height="40" as="geometry"/>
                </mxCell>
                <mxCell id="9" value="" style="edgeStyle=none;html=1;endArrow=none;endFill=0;" edge="1" parent="1" source="8" target="2">
                    <mxGeometry relative="1" as="geometry"/>
                </mxCell>
                <mxCell id="8" value="CourseName" style="ellipse;whiteSpace=wrap;html=1;align=center;" vertex="1" parent="1">
                    <mxGeometry x="340" y="170" width="100" height="40" as="geometry"/>
                </mxCell>
                <mxCell id="11" value="" style="edgeStyle=none;html=1;endArrow=none;endFill=0;" edge="1" parent="1" source="10" target="2">
                    <mxGeometry relative="1" as="geometry"/>
                </mxCell>
                <mxCell id="10" value="Syllabus" style="ellipse;whiteSpace=wrap;html=1;align=center;" vertex="1" parent="1">
                    <mxGeometry x="440" y="140" width="100" height="40" as="geometry"/>
                </mxCell>
                <mxCell id="13" value="" style="edgeStyle=none;html=1;endArrow=none;endFill=0;" edge="1" parent="1" source="12" target="2">
                    <mxGeometry relative="1" as="geometry"/>
                </mxCell>
                <mxCell id="12" value="Progression" style="ellipse;whiteSpace=wrap;html=1;align=center;" vertex="1" parent="1">
                    <mxGeometry x="470" y="200" width="100" height="40" as="geometry"/>
                </mxCell>
                <mxCell id="15" value="" style="edgeStyle=none;html=1;endArrow=none;endFill=0;" edge="1" parent="1" source="14" target="2">
                    <mxGeometry relative="1" as="geometry"/>
                </mxCell>
                <mxCell id="14" value="Created" style="ellipse;whiteSpace=wrap;html=1;align=center;" vertex="1" parent="1">
                    <mxGeometry x="480" y="270" width="100" height="40" as="geometry"/>
                </mxCell>
            </root>
        </mxGraphModel>
    </diagram>
</mxfile>